<svg width="25" height="24" viewBox="0 0 25 24" fill="none" xmlns="http://www.w3.org/2000/svg">
<path d="M20.8333 2.69231H18.3333V1.84615C18.3333 1.62174 18.2455 1.40652 18.0893 1.24783C17.933 1.08915 17.721 1 17.5 1C17.279 1 17.067 1.08915 16.9107 1.24783C16.7545 1.40652 16.6667 1.62174 16.6667 1.84615V2.69231H8.33333V1.84615C8.33333 1.62174 8.24554 1.40652 8.08926 1.24783C7.93297 1.08915 7.72101 1 7.5 1C7.27899 1 7.06702 1.08915 6.91074 1.24783C6.75446 1.40652 6.66667 1.62174 6.66667 1.84615V2.69231H4.16667C3.72477 2.69275 3.3011 2.87119 2.98864 3.18846C2.67617 3.50574 2.50044 3.93592 2.5 4.38462V21.3077C2.50044 21.7564 2.67617 22.1866 2.98864 22.5038C3.3011 22.8211 3.72477 22.9996 4.16667 23H20.8333C21.2752 22.9996 21.6989 22.8211 22.0114 22.5038C22.3238 22.1866 22.4996 21.7564 22.5 21.3077V4.38462C22.4996 3.93592 22.3238 3.50574 22.0114 3.18846C21.6989 2.87119 21.2752 2.69275 20.8333 2.69231ZM20.8333 7.76923H4.16667V4.38462H6.66667V5.23077C6.66667 5.45518 6.75446 5.67041 6.91074 5.82909C7.06702 5.98777 7.27899 6.07692 7.5 6.07692C7.72101 6.07692 7.93297 5.98777 8.08926 5.82909C8.24554 5.67041 8.33333 5.45518 8.33333 5.23077V4.38462H16.6667V5.23077C16.6667 5.45518 16.7545 5.67041 16.9107 5.82909C17.067 5.98777 17.279 6.07692 17.5 6.07692C17.721 6.07692 17.933 5.98777 18.0893 5.82909C18.2455 5.67041 18.3333 5.45518 18.3333 5.23077V4.38462H20.8333V7.76923Z" fill="#42C4FC"/>
</svg>
