<svg width="25" height="24" viewBox="0 0 25 24" fill="none" xmlns="http://www.w3.org/2000/svg">
<path fill-rule="evenodd" clip-rule="evenodd" d="M15.8569 0.95294C15.5827 0.872919 15.2942 0.854243 15.012 0.898241C14.731 0.942053 14.463 1.04694 14.2269 1.20551L12.9618 2.04894H12.0383L10.773 1.20545C10.537 1.04692 10.269 0.942049 9.988 0.898241C9.70578 0.854244 9.41732 0.872855 9.14313 0.952876L9.13146 0.956419C8.41948 1.17261 7.73017 1.45745 7.07335 1.80707L7.06149 1.81357C6.81076 1.95092 6.59345 2.14194 6.42508 2.37298C6.25771 2.60265 6.14281 2.86624 6.08845 3.14513L5.79012 4.63697L5.13707 5.29002L3.64525 5.58834C3.36635 5.6427 3.10277 5.7576 2.8731 5.92496C2.64206 6.09332 2.45097 6.31058 2.31361 6.5613L2.30729 6.57319C1.9576 7.23003 1.67257 7.91931 1.45635 8.63132L1.45291 8.64309C1.3729 8.91728 1.35424 9.20573 1.39824 9.48794C1.44206 9.76896 1.54695 10.0369 1.70551 10.273L2.54894 11.5382V12.4617L1.70552 13.7268C1.54695 13.9629 1.44206 14.2309 1.39824 14.5119C1.35424 14.7941 1.37285 15.0826 1.45287 15.3568L1.4564 15.3684C1.67257 16.0805 1.95742 16.7698 2.30708 17.4267L2.31359 17.4385C2.45095 17.6892 2.64195 17.9065 2.87298 18.0749C3.10258 18.2422 3.36608 18.3571 3.64488 18.4115L5.13705 18.7099L5.79002 19.3629L6.08837 20.8549C6.14273 21.1338 6.25762 21.3973 6.42494 21.6269C6.5933 21.858 6.81054 22.0491 7.06124 22.1864L7.07317 22.1928C7.73001 22.5425 8.4193 22.8275 9.13133 23.0436L9.14304 23.0471C9.41721 23.127 9.70563 23.1457 9.98783 23.1017C10.2689 23.0579 10.5369 22.953 10.7729 22.7944L10.7759 22.7925L12.0382 21.951H12.9616L14.2239 22.7925L14.2272 22.7947C14.4632 22.9532 14.7311 23.058 15.012 23.1018C15.2942 23.1458 15.5827 23.1272 15.8569 23.0472L15.8685 23.0436C16.5805 22.8274 17.2698 22.5426 17.9266 22.193L17.9385 22.1864C18.1892 22.0491 18.4065 21.8581 18.5749 21.6271C18.7422 21.3974 18.8571 21.1339 18.9115 20.8551L19.2099 19.363L19.8629 18.7099L21.3551 18.4115C21.6339 18.3571 21.8974 18.2423 22.1269 18.075C22.358 17.9066 22.549 17.6894 22.6864 17.4386L22.6927 17.4268C23.0424 16.77 23.3274 16.0807 23.5437 15.3687L23.5471 15.357C23.6271 15.0828 23.6458 14.7943 23.6018 14.5121C23.558 14.2311 23.4531 13.9632 23.2946 13.7271L23.2925 13.724L22.451 12.4618V11.5383L23.2925 10.2761L23.2946 10.2729C23.4531 10.0369 23.558 9.76892 23.6018 9.48795C23.6458 9.20573 23.6272 8.91726 23.5472 8.64306L23.5436 8.63132C23.3274 7.91933 23.0425 7.23002 22.6928 6.57321L22.6863 6.56142C22.549 6.31072 22.358 6.09343 22.127 5.92507C21.8973 5.75773 21.6338 5.64283 21.3549 5.58846L19.863 5.29004L19.21 4.63705L18.9116 3.14499C18.8572 2.86615 18.7423 2.6026 18.5749 2.37297C18.4066 2.14193 18.1893 1.95085 17.9386 1.8135L17.9267 1.80715C17.2698 1.45753 16.5806 1.17255 15.8686 0.956355L15.8569 0.95294ZM8.62501 12C8.62501 9.85991 10.3599 8.12502 12.5 8.12502C14.6401 8.12502 16.375 9.85991 16.375 12C16.375 14.1401 14.6401 15.875 12.5 15.875C10.3599 15.875 8.62501 14.1401 8.62501 12ZM12.5 5.87502C9.11726 5.87502 6.37501 8.61727 6.37501 12C6.37501 15.3828 9.11726 18.125 12.5 18.125C15.8828 18.125 18.625 15.3828 18.625 12C18.625 8.61727 15.8828 5.87502 12.5 5.87502Z" fill="#ACACB0"/>
</svg>
