<svg width="25" height="24" viewBox="0 0 25 24" fill="none" xmlns="http://www.w3.org/2000/svg">
<path d="M21.6667 1H3.33333C2.8472 1.00033 2.38108 1.19359 2.03733 1.53733C1.69359 1.88108 1.50033 2.3472 1.5 2.83333V21.1667C1.50033 21.6528 1.69359 22.1189 2.03733 22.4627C2.38108 22.8064 2.8472 22.9997 3.33333 23H15.7871C16.0279 23.0004 16.2664 22.9532 16.4889 22.861C16.7114 22.7688 16.9134 22.6335 17.0833 22.4629L22.9629 16.5833C23.1335 16.4134 23.2688 16.2114 23.361 15.9889C23.4532 15.7664 23.5004 15.5279 23.5 15.2871V2.83333C23.4997 2.3472 23.3064 1.88108 22.9627 1.53733C22.6189 1.19359 22.1528 1.00033 21.6667 1ZM8.83333 7.41667H16.1667C16.4098 7.41667 16.6429 7.51324 16.8148 7.68515C16.9868 7.85706 17.0833 8.09022 17.0833 8.33333C17.0833 8.57645 16.9868 8.8096 16.8148 8.98151C16.6429 9.15342 16.4098 9.25 16.1667 9.25H8.83333C8.59022 9.25 8.35706 9.15342 8.18515 8.98151C8.01324 8.8096 7.91667 8.57645 7.91667 8.33333C7.91667 8.09022 8.01324 7.85706 8.18515 7.68515C8.35706 7.51324 8.59022 7.41667 8.83333 7.41667ZM12.5 16.5833H8.83333C8.59022 16.5833 8.35706 16.4868 8.18515 16.3148C8.01324 16.1429 7.91667 15.9098 7.91667 15.6667C7.91667 15.4235 8.01324 15.1904 8.18515 15.0185C8.35706 14.8466 8.59022 14.75 8.83333 14.75H12.5C12.7431 14.75 12.9763 14.8466 13.1482 15.0185C13.3201 15.1904 13.4167 15.4235 13.4167 15.6667C13.4167 15.9098 13.3201 16.1429 13.1482 16.3148C12.9763 16.4868 12.7431 16.5833 12.5 16.5833ZM8.83333 12.9167C8.59022 12.9167 8.35706 12.8201 8.18515 12.6482C8.01324 12.4763 7.91667 12.2431 7.91667 12C7.91667 11.7569 8.01324 11.5237 8.18515 11.3518C8.35706 11.1799 8.59022 11.0833 8.83333 11.0833H16.1667C16.4098 11.0833 16.6429 11.1799 16.8148 11.3518C16.9868 11.5237 17.0833 11.7569 17.0833 12C17.0833 12.2431 16.9868 12.4763 16.8148 12.6482C16.6429 12.8201 16.4098 12.9167 16.1667 12.9167H8.83333ZM16.1667 20.7871V15.6649H21.2889L16.1667 20.7871Z" fill="#ACACB0"/>
</svg>
